<?xml version="1.0" encoding="utf-8"?>
<svg x="0px" y="0px" width="100px" height="25px" focusable="false" xml:space="preserve" viewBox="0 0 100 100" xmlns="http://www.w3.org/2000/svg">
<g transform="translate(85,-25) scale(0.15,0.15)">
<circle fill="#00b9f1" cx="50" cy="50" r="50"/>
<g fill="#FFF">
<path d="M80 64.4c-1.7-1.8-4.4-5.5-4.4-5.5 2.4-.7 4.5-1.9 6.2-3.6 2.7-2.7 4.2-6.6 4.2-10.7 0-4.3-1.9-8.2-4.8-10.6-3-2.4-6.8-3.6-10.8-3.6h-7c-6.6 0-11.9 5.3-11.9 11.9v29.5h8v-8.4c0-2.2 1.8-4 4-4h3.2L75.1 70l.6.7c.6.6 1.5 1 2.4 1.1H83.4v-6.4s-2 .6-3.4-1zm-8.9-12.8h-7.7c-1.4 0-2.7.6-4 1V42.4c0-2.2 1.8-4 4-4h7c2.5 0 4.5.7 5.7 1.8 1.2 1.1 1.9 2.3 2 4.5 0 2.3-.8 3.9-1.9 5.1-1.2 1-2.8 1.8-5.1 1.8zM46.3 31.8h-7.9v12.9c-.2 4.8-4.6 6.4-8.2 6.4-4.1-.1-8.4-2.3-8.4-8.6V31.8H14v10.7c0 4.9 1.7 9 4.9 12 2.9 2.7 6.8 4.2 11.1 4.3h.4c2.9-.1 7.1-1.9 8-3.6v3.5c0 4.7-6 7.8-7.6 8.6l.1.1s-.1 0-.1.1l5 6c2.9-1.7 10.5-5.1 10.5-15.7v-26z"/>
</g>
</g>
</svg>
